<svg id="Layer_1" data-name="Layer 1" xmlns="http://www.w3.org/2000/svg" viewBox="0 0 20 20"><defs><style>.cls-1{fill:#c2e9e0;}.cls-2{fill:#a7cac2;}.cls-3{fill:#f2da3d;}</style></defs><title>fordly-notifications</title><g id="Layer_2" data-name="Layer 2"><rect class="cls-1" width="20" height="20"/></g><g id="Layer_1-2" data-name="Layer 1"><path class="cls-2" d="M11.37,6.79H6.7V5.12H18V6.79H13.37v10h-2Z"/><path class="cls-3" d="M7.67,4.85H3V3.19H14.33V4.85H9.67v10h-2Z"/><polygon class="cls-2" points="3 4.85 6.71 6.79 7.64 6.79 7.66 4.85 3 4.85"/><polygon class="cls-2" points="14.33 3.17 18.04 5.11 14.33 5.11 14.33 3.17"/><polygon class="cls-2" points="7.66 14.83 11.37 16.76 13.36 16.76 9.65 14.83 7.66 14.83"/><polygon class="cls-2" points="9.65 4.85 9.65 14.83 11.33 15.74 11.37 6.79 14.33 5.11 14.33 4.85 9.65 4.85"/></g></svg>