<svg id="Layer_1" data-name="Layer 1" xmlns="http://www.w3.org/2000/svg" viewBox="0 0 29 29"><defs><style>.cls-1{fill:#c2e9e0;}.cls-2{fill:#a7cac2;}.cls-3{fill:#f2da3d;}</style></defs><title>fordly-settings</title><g id="Layer_2" data-name="Layer 2"><rect class="cls-1" width="29" height="29"/></g><g id="Layer_1-2" data-name="Layer 1"><path class="cls-2" d="M16.48,9.85H9.71V7.43H26.15V9.85H19.38V24.31h-2.9Z"/><path class="cls-3" d="M11.12,7H4.35V4.62H20.78V7H14V21.5h-2.9Z"/><polygon class="cls-2" points="4.35 7.04 9.73 9.85 11.08 9.85 11.1 7.04 4.35 7.04"/><polygon class="cls-2" points="20.78 4.6 26.16 7.41 20.78 7.41 20.78 4.6"/><polygon class="cls-2" points="11.1 21.5 16.48 24.31 19.38 24.31 14 21.5 11.1 21.5"/><polygon class="cls-2" points="14 7.04 14 21.5 16.43 22.83 16.48 9.85 20.78 7.41 20.78 7.04 14 7.04"/></g></svg>