<svg id="Layer_1" data-name="Layer 1" xmlns="http://www.w3.org/2000/svg" viewBox="0 0 1024 1024"><defs><style>.cls-1{fill:#c2e9e0;}.cls-2{fill:#a7cac2;}.cls-3{fill:#f2da3d;}</style></defs><title>fordly-appstore</title><g id="Layer_2" data-name="Layer 2"><rect class="cls-1" width="1024" height="1024"/></g><g id="Layer_1-2" data-name="Layer 1"><path class="cls-2" d="M582,347.65H343V262.31H923.31v85.33H684.37V858.28H582Z"/><path class="cls-3" d="M392.53,248.49H153.6V163.16H733.87v85.33H494.93V759.13H392.53Z"/><polygon class="cls-2" points="153.6 248.49 343.55 347.65 391.34 347.65 392.02 248.49 153.6 248.49"/><polygon class="cls-2" points="733.87 162.47 923.82 261.46 733.87 261.46 733.87 162.47"/><polygon class="cls-2" points="392.02 759.13 581.97 858.28 684.2 858.28 494.25 759.13 392.02 759.13"/><polygon class="cls-2" points="494.25 248.49 494.25 759.13 586.79 819.67 581.97 347.65 733.87 261.46 733.87 248.49 494.25 248.49"/></g></svg>