<svg id="Layer_1" data-name="Layer 1" xmlns="http://www.w3.org/2000/svg" viewBox="0 0 40 40"><defs><style>.cls-1{fill:#c2e9e0;}.cls-2{fill:#a7cac2;}.cls-3{fill:#f2da3d;}</style></defs><title>Artboard 1</title><g id="Layer_2" data-name="Layer 2"><rect class="cls-1" width="40" height="40"/></g><g id="Layer_1-2" data-name="Layer 1"><path class="cls-2" d="M22.73,13.58H13.4V10.25H36.07v3.33H26.73V33.53h-4Z"/><path class="cls-3" d="M15.33,9.71H6V6.37H28.67V9.71H19.33V29.65h-4Z"/><polygon class="cls-2" points="6 9.71 13.42 13.58 15.29 13.58 15.31 9.71 6 9.71"/><polygon class="cls-2" points="28.67 6.35 36.09 10.21 28.67 10.21 28.67 6.35"/><polygon class="cls-2" points="15.31 29.65 22.73 33.53 26.73 33.53 19.31 29.65 15.31 29.65"/><polygon class="cls-2" points="19.31 9.71 19.31 29.65 22.66 31.49 22.73 13.58 28.67 10.21 28.67 9.71 19.31 9.71"/></g></svg>