<svg xmlns="http://www.w3.org/2000/svg" viewBox="0 0 60 60"><defs><style>.cls-1{fill:#c2e9e0;}.cls-2{fill:#a7cac2;}.cls-3{fill:#f2da3d;}</style></defs><title>fordly-appicon</title><g id="Layer_2" data-name="Layer 2"><rect class="cls-1" width="60" height="60"/></g><g id="Layer_1" data-name="Layer 1"><path class="cls-2" d="M34.1,20.37h-14v-5h34v5h-14V50.29h-6Z"/><path class="cls-3" d="M23,14.56H9v-5H43v5H29V44.48H23Z"/><polygon class="cls-2" points="9 14.56 20.13 20.37 22.93 20.37 22.97 14.56 9 14.56"/><polygon class="cls-2" points="43 9.52 54.13 15.32 43 15.32 43 9.52"/><polygon class="cls-2" points="22.97 44.48 34.1 50.29 40.09 50.29 28.96 44.48 22.97 44.48"/><polygon class="cls-2" points="28.96 14.56 28.96 44.48 33.99 47.23 34.1 20.37 43 15.32 43 14.56 28.96 14.56"/></g></svg>