<svg id="Capa_1" data-name="Capa 1" xmlns="http://www.w3.org/2000/svg" viewBox="0 0 515.46 515.46"><defs><style>.cls-1{fill:#ff000a;}</style></defs><title>Artboard 1</title><path class="cls-1" d="M298.79,386.71c27.8,9.52,52.36,15.59,87.63,26.43C372.88,584.37,211,516.37,298.79,386.71Zm144.57-157.3c-1.83-51.42-10.88-118.86-83-108.29-33.82,8.83-58.8,46-70.55,110-6.45,35.23-2.7,84.68,4.91,114.32,7,20.89,4.59,19.61,12.06,23.57,28.92,6.51,57.54,13.73,86.69,21.08C423.08,369.21,447.4,258.18,443.37,229.41Zm-222.61-3.95c7.61-29.65,11.36-79.1,4.91-114.32-11.74-64.08-36.73-101.22-70.55-110C83-9.46,73.92,58,72.09,109.4c-4,28.77,20.29,139.8,49.91,160.71,29.15-7.35,57.77-14.56,86.7-21.08C216.16,245.07,213.8,246.35,220.75,225.46ZM129,293.13c13.55,171.23,175.47,103.23,87.63-26.43C188.85,276.23,164.3,282.29,129,293.13Z"/></svg>