<svg xmlns="http://www.w3.org/2000/svg" viewBox="0 0 100 100"><defs><style>.cls-1{fill:#c2e9e0;}.cls-2{fill:#fff;}.cls-3{fill:#f2da3d;}</style></defs><title>Artboard 1</title><g id="Layer_1" data-name="Layer 1"><rect class="cls-1" width="100" height="100"/></g><g id="Layer_2" data-name="Layer 2"><path class="cls-2" d="M20.25,44.75h33a0,0,0,0,1,0,0v18.5a16.5,16.5,0,0,1-16.5,16.5h0a16.5,16.5,0,0,1-16.5-16.5V44.75a0,0,0,0,1,0,0Z" transform="translate(54.78 -7.75) rotate(45)"/><path class="cls-3" d="M45,20H78a0,0,0,0,1,0,0V38.5A16.5,16.5,0,0,1,61.5,55h0A16.5,16.5,0,0,1,45,38.5V20a0,0,0,0,1,0,0Z" transform="translate(78.47 107.5) rotate(-135)"/></g></svg>