<svg xmlns="http://www.w3.org/2000/svg" viewBox="0 0 1080 1920"><defs><style>.cls-1{fill:#c2e9e0;}.cls-2{fill:#a7cac2;}.cls-3{fill:#f2da3d;}</style></defs><title>fordly-splashscreen</title><g id="Layer_2" data-name="Layer 2"><rect class="cls-1" width="1080" height="1920"/></g><g id="Layer_1" data-name="Layer 1"><path class="cls-2" d="M600.8,793.39H356.92v-88H950.57v88H705.5V1315.8H600.8Z"/><path class="cls-3" d="M406.45,692H162.57V604H756.21v88H511.14v522.41H406.45Z"/><polygon class="cls-2" points="162.57 692.04 356.92 793.39 405.71 793.48 406.45 692.04 162.57 692.04"/><polygon class="cls-2" points="756.21 604 950.57 705.36 756.21 705.36 756.21 604"/><polygon class="cls-2" points="406.45 1214.45 600.8 1315.8 705.5 1315.8 511.14 1214.45 406.45 1214.45"/><polygon class="cls-2" points="511.14 692.04 511.14 1214.45 605.5 1266.24 613.45 783.71 756.21 705.36 756.21 692.04 511.14 692.04"/></g></svg>